<?xml version="1.0" encoding="utf-8"?>
<!-- Generator: Adobe Illustrator 18.0.0, SVG Export Plug-In . SVG Version: 6.00 Build 0)  -->
<!DOCTYPE svg PUBLIC "-//W3C//DTD SVG 1.1//EN" "http://www.w3.org/Graphics/SVG/1.1/DTD/svg11.dtd">
<svg version="1.1" id="Layer_1" xmlns="http://www.w3.org/2000/svg" xmlns:xlink="http://www.w3.org/1999/xlink" x="0px" y="0px"
	 viewBox="0 0 220 250" enable-background="new 0 0 220 250" xml:space="preserve">
<g>
	<polygon fill="#37B8B1" points="1.7,62.5 110,0 218.3,62.5 218.3,187.5 110,250 1.7,187.5 	"/>
	<g>
		<defs>
			<polygon id="SVGID_1_" points="1.7,62.5 110,0 218.3,62.5 218.3,187.5 110,250 1.7,187.5 			"/>
		</defs>
		<clipPath id="SVGID_2_">
			<use xlink:href="#SVGID_1_"  overflow="visible"/>
		</clipPath>
		<polygon clip-path="url(#SVGID_2_)" fill="#227472" points="51.9,155 309.5,321.1 350.8,195 166,88.7 161.4,88.6 158.6,95.1 
			126.2,85.4 108.8,83.3 66.7,77.1 92.5,92 92.2,93 86.6,89.8 58.4,88.7 		"/>
	</g>
	<g>
		<path fill="#FFFFFF" d="M66.7,77.1l91.6,23.9l-11.9,79.7l21.6-86.4c0.7-2.7-0.8-5.6-3.4-6.6L147.2,81c-3-1.1-6.3,0.4-7.3,3.4
			l-1.2,3.6L73.8,69.5c-2.9-0.8-5.9,1-6.5,4L66.7,77.1z"/>
		<path fill="#FFFFFF" d="M73.9,119v-7.6c0-9.2,5.1-17.3,12.7-21.6l-24.4-6.6c-5-1.4-10,2.4-10,7.7L51.9,155l15.7,4.3v-32
			C67.6,123.3,70.3,120,73.9,119z"/>
		<path fill="#FFFFFF" d="M146.5,112c0-3.6-2.4-6.8-5.9-7.7l-19.4-5.2c2.1,3.6,3.3,7.8,3.3,12.3v7.6c3.6,1,6.3,4.3,6.3,8.2v38.4
			c0,4.7-3.8,8.5-8.5,8.5l24.1,6.5L146.5,112z"/>
		<path fill="#FFFFFF" d="M99.2,102.5c-5,0-9.1,4-9.1,8.9v7.3h18.2v-7.3C108.3,106.5,104.2,102.5,99.2,102.5z"/>
		<path fill="#FFFFFF" d="M122.2,122.9h-2v-11.6c0-11.4-9.4-20.7-21-20.7s-21,9.2-21,20.7v11.6h-2c-2.4,0-4.4,1.9-4.4,4.3v38.4
			c0,2.4,1.9,4.3,4.4,4.3h46c2.4,0,4.4-1.9,4.4-4.3v-38.4C126.5,124.9,124.6,122.9,122.2,122.9z M104.9,160.6H93.5l1.8-12.6
			c-2-1.3-3.3-3.5-3.3-6c0-3.9,3.3-7.1,7.3-7.1s7.3,3.2,7.3,7.1c0,2.5-1.3,4.7-3.3,6L104.9,160.6z M112.6,122.9H85.8v-11.6
			c0-7.2,6-13.1,13.4-13.1s13.4,5.9,13.4,13.1V122.9z"/>
	</g>
</g>
</svg>
