<?xml version="1.0" encoding="utf-8"?>
<!-- Generator: Adobe Illustrator 18.0.0, SVG Export Plug-In . SVG Version: 6.00 Build 0)  -->
<!DOCTYPE svg PUBLIC "-//W3C//DTD SVG 1.1//EN" "http://www.w3.org/Graphics/SVG/1.1/DTD/svg11.dtd">
<svg version="1.1" id="Layer_1" xmlns="http://www.w3.org/2000/svg" xmlns:xlink="http://www.w3.org/1999/xlink" x="0px" y="0px"
	 viewBox="0 0 220 250" enable-background="new 0 0 220 250" xml:space="preserve">
<g>
	<polygon fill="#37B8B1" points="1.7,62.5 110,0 218.3,62.5 218.3,187.5 110,250 1.7,187.5 	"/>
	<polygon fill="none" points="1.7,62.5 110,0 218.3,62.5 218.3,187.5 110,250 1.7,187.5 	"/>
	<polygon fill="none" points="1.7,62.5 110,0 218.3,62.5 218.3,187.5 110,250 1.7,187.5 	"/>
	<g>
		<defs>
			<polygon id="SVGID_1_" points="1.7,62.5 110,0 218.3,62.5 218.3,187.5 110,250 1.7,187.5 			"/>
		</defs>
		<clipPath id="SVGID_2_">
			<use xlink:href="#SVGID_1_"  overflow="visible"/>
		</clipPath>
		<polygon clip-path="url(#SVGID_2_)" fill="#227472" points="155,80 65,80 65,170 207.5,251.7 270.3,147 		"/>
	</g>
	<g>
		<path fill="#FFFFFF" d="M119.7,100.6c-9-6.3-21.3-5.3-29.1,2.5c-7.9,7.8-8.9,20.2-2.4,29.1c7.2,9.8,18.6,11.9,31.8,5.4
			c3.1,3.1,6,6.1,9,9.1c2.9,2.9,5.7,5.8,8.7,8.6c1.8,1.7,3.9,1.6,5.5,0c1.5-1.5,1.6-3.7,0.1-5.5c-0.6-0.7-1.2-1.3-1.9-1.9
			c-5.4-5.3-10.7-10.6-16-15.8C131.8,118.9,129.7,107.7,119.7,100.6z M106.6,133.8c-8.1,0-14.8-6.6-14.9-14.6
			c-0.1-8.2,6.7-14.9,14.9-14.8c8.2,0.1,14.8,6.7,14.7,14.7C121.4,127.2,114.7,133.8,106.6,133.8z"/>
		<path fill="#FFFFFF" d="M148.5,152.6c0.3,3.6-1.7,5.9-4.7,7.2c-3,1.4-5.9,0.7-8.4-1.6c-0.7-0.6-1.3-1.2-2.5-2.2c0,2.9,0,5,0,7
			c-5.2,0-10.1,0-15,0c0-5.1,0-9.9,0-15.1c2.3,0,4.4,0,6.6,0c-1.7-1.9-3.2-3.5-4.4-4.9c-3.5,1.1-6.7,2.2-9.9,3.2
			c0,7.9,0,15.8,0,23.8H155v-22.1c-2.4,0.2-4.6,0.3-6.8,0.5C148.3,149.8,148.4,151.2,148.5,152.6z"/>
		<path fill="#FFFFFF" d="M148.2,148.4C148.2,148.4,148.2,148.4,148.2,148.4C148.2,148.4,148.2,148.4,148.2,148.4L148.2,148.4z"/>
		<path fill="#FFFFFF" d="M78.9,112.7c0.5,0,1.2-0.5,1.4-0.9c0.9-2,1.6-4.1,2.5-6.5c-3.7,0-7.1,0-10.6,0c0-6.4,0-12.4,0-18.6
			c6.3,0,12.4,0,18.8,0c0,3.3,0,6.4,0,9.8c2.4-1.1,4.3-2,6.2-3c0.5-0.2,1.2-0.8,1.2-1.2c0.1-4.1,0.1-8.3,0.1-12.4H65v32.7
			C69.7,112.7,74.3,112.7,78.9,112.7z"/>
		<path fill="#FFFFFF" d="M148.4,124.8c-2.7,0-4.9,0-7.6,0c0-2.5,0-5,0-7.3c-2.5,0-4.6,0-6.2,0c-1.2,5.2-2.4,10.1-3.5,15.1
			c7.8,0,15.8,0,23.9,0v-15.1c-2.2,0-4.3,0-6.6,0C148.4,120,148.4,122.4,148.4,124.8z"/>
		<path fill="#FFFFFF" d="M79.2,140c3.4,0,6.5,0,9.9,0c-6.6-6.3-10.3-13.5-10.1-22.5c-2.6,0-5,0-7.7,0c0,2.6,0,4.9,0,7.5
			c-2.4,0-4.1,0-6.3,0v7.6c4.8,0,9,0,14.2,0C79.2,135.4,79.2,137.7,79.2,140z"/>
		<path fill="#FFFFFF" d="M102.5,86.8c0,1.9,0,3.6,0,5.4c8.8-1.1,16.2,1.4,22.8,6.9c0-4.3,0-8.2,0-12.5c-2.5,0-4.9,0-7.5,0
			c0-2.4,0-4.5,0-6.6h-7.8c0,2.3,0,4.4,0,6.8C107.2,86.8,104.9,86.8,102.5,86.8z"/>
		<path fill="#FFFFFF" d="M87.1,99c0.3-2.8,0.1-5.6,0.1-8.6c-4.1,0-7.8,0-11.5,0c0,3.8,0,7.4,0,11.2c3.1,0,6,0.2,8.9-0.1
			C85.6,101.4,87,100,87.1,99z"/>
		<path fill="#FFFFFF" d="M142.7,140.3c-0.5,0-1,0.1-1.5,0.1c-0.4,2.6,3.4,6.9,7,8c0.1-2.7,0.2-5.3,0.4-8.1
			C146.2,140.3,144.5,140.3,142.7,140.3z"/>
		<path fill="#FFFFFF" d="M148.2,148.4C148.2,148.4,148.2,148.4,148.2,148.4C148.2,148.4,148.2,148.4,148.2,148.4
			C148.2,148.4,148.2,148.4,148.2,148.4z"/>
		<path fill="#FFFFFF" d="M125.5,155.5c2.2,0,4.3,0,6.2,0c-2-2.1-4.1-4.3-6.2-6.4C125.5,151.1,125.5,153.3,125.5,155.5z"/>
		<path fill="#FFFFFF" d="M65,143.6V170h34.5c0-9.1,0-17.9,0-26.4C87.5,143.6,76.3,143.6,65,143.6z M72.3,164.7v-15h19.5v15H72.3z"
			/>
		<path fill="#FFFFFF" d="M155,107.4V80h-27.2c0,9.3,0,18.1,0,27.4C137.2,107.4,146.1,107.4,155,107.4z M149.8,86v15.2H134V86H149.8
			z"/>
	</g>
</g>
</svg>
