<?xml version="1.0" encoding="utf-8"?>
<!-- Generator: Adobe Illustrator 18.0.0, SVG Export Plug-In . SVG Version: 6.00 Build 0)  -->
<!DOCTYPE svg PUBLIC "-//W3C//DTD SVG 1.1//EN" "http://www.w3.org/Graphics/SVG/1.1/DTD/svg11.dtd">
<svg version="1.1" id="Layer_1" xmlns="http://www.w3.org/2000/svg" xmlns:xlink="http://www.w3.org/1999/xlink" x="0px" y="0px"
	 viewBox="0 0 220 250" enable-background="new 0 0 220 250" xml:space="preserve">
<g>
	<polygon fill="#37B8B1" points="1.7,62.5 110,0 218.3,62.5 218.3,187.5 110,250 1.7,187.5 	"/>
	<polygon fill="none" points="1.7,62.5 110,0 218.3,62.5 218.3,187.5 110,250 1.7,187.5 	"/>
	<polygon fill="none" points="1.7,62.5 110,0 218.3,62.5 218.3,187.5 110,250 1.7,187.5 	"/>
	<g>
		<defs>
			<polygon id="SVGID_1_" points="1.7,62.5 110,0 218.3,62.5 218.3,187.5 110,250 1.7,187.5 			"/>
		</defs>
		<clipPath id="SVGID_2_">
			<use xlink:href="#SVGID_1_"  overflow="visible"/>
		</clipPath>
		<polygon clip-path="url(#SVGID_2_)" fill="#227472" points="141.6,73.3 116,81 112.1,78.8 108.9,79.7 68.5,80.3 66.8,177.6 
			213.6,262.9 282.5,147.8 		"/>
	</g>
	<g>
		<path fill="#FFFFFF" d="M131,110.5c-11,0.1-19.7-8.9-20.1-19.3c-0.4-11.8,9-20.7,19.6-21c11.5-0.3,20.9,9.1,20.7,20.4
			C151.1,101.9,141.8,110.7,131,110.5z M128.4,94.2c-0.9-1.2-1.7-2.2-2.6-3.3c-1.1-1.3-2.9-1.5-4.2-0.5c-1.3,1-1.6,2.9-0.6,4.2
			c1.8,2.4,3.7,4.8,5.6,7.2c0.7,0.9,1.7,1.3,2.9,1.1c1.1-0.2,1.8-0.9,2.3-1.8c1.4-2.8,2.8-5.6,4.2-8.3c1.6-3.1,3.1-6.2,4.7-9.4
			c0.3-0.7,0.5-1.4,0.3-2.1c-0.3-1.4-1.4-2.2-2.7-2.4c-1.2-0.1-2.4,0.6-3,1.8c-1.4,2.7-2.8,5.5-4.1,8.2
			C130.2,90.7,129.3,92.4,128.4,94.2z"/>
		<circle fill="none" cx="92.2" cy="109.5" r="5.9"/>
		<circle fill="none" cx="102" cy="131.3" r="4.2"/>
		<path fill="none" d="M138.7,82.4c0.2-0.4,0.2-0.6,0.1-0.7c-0.1-0.5-0.4-0.8-0.9-0.8h0c-0.3,0-0.7,0.2-0.9,0.7l-4.2,8.4
			c0.5,0.4,1,0.9,1.5,1.3C136.2,87.5,138.1,83.6,138.7,82.4z"/>
		<circle fill="none" cx="124.5" cy="128.8" r="5.9"/>
		<circle fill="none" cx="81.2" cy="129.7" r="2.8"/>
		<path fill="#FFFFFF" d="M67.4,78.7c-0.5,0-0.6,0.1-0.6,0.6c0,9.2,0,88.7,0,98c0,0.1,0,0.3,0,0.4c2.6,0,5.2,0,7.9,0
			c0-7.2,0-84.6,0-91.8c11.5,0,23,0,34.6,0c0.5-2.5,1.5-4.9,2.8-7.1C97.2,78.8,82.3,78.8,67.4,78.7z"/>
		<path fill="#FFFFFF" d="M134.8,170.8c-17.8,0-35.6,0-53.4,0c0,2.3,0,4.6,0,6.9c20.5,0,40.9,0,61.4,0c0-0.2,0-0.5,0-0.7
			c0-22.6,0-45.2,0-67.7c-2.4,1.5-5.1,2.6-8,3C134.8,131.8,134.8,151.3,134.8,170.8z"/>
		<path fill="#FFFFFF" d="M111.7,101.3c0,1.8,0,3.5,0,5.3c1.4,0,2.8,0,4.2,0C114.2,105.1,112.8,103.3,111.7,101.3z"/>
		<path fill="#FFFFFF" d="M84.4,147.3c0-1.2-0.9-2.1-2-2.3l0.1,0l-0.4-11.9c1.2-0.3,2.1-1.2,2.5-2.4l12.1,0.8
			c0.1,0.8,0.3,1.5,0.6,2.2l-7.9,6.3l0,0c-0.4-0.3-1-0.5-1.6-0.5c-1.4,0-2.6,1.2-2.6,2.6c0,1.4,1.2,2.6,2.6,2.6s2.6-1.2,2.6-2.6
			c0-0.4-0.1-0.9-0.3-1.2l8-6l0,0c1,1,2.3,1.6,3.8,1.6c0.5,0,1-0.1,1.5-0.2l0,0l5.6,9c-1.1,0.9-1.8,2.4-1.8,3.9
			c0,2.8,2.3,5.1,5.1,5.1c2.8,0,5.1-2.3,5.1-5.1c0-1.6-0.7-3-1.9-4l6-9.7c0.9,0.4,1.9,0.6,2.9,0.6c4.1,0,7.4-3.3,7.4-7.4
			c0-4.1-3.3-7.4-7.4-7.4c-4.1,0-7.4,3.3-7.4,7.4c0,2.4,1.2,4.6,2.9,5.9c0,0,0,0,0,0l-5.6,9.9c-0.6-0.3-1.3-0.4-2-0.4
			c-0.7,0-1.4,0.2-2.1,0.4l-0.2-0.4l-5.1-8.5c1.4-0.9,2.3-2.6,2.3-4.4c0-2.9-2.4-5.3-5.3-5.3c-0.5,0-1,0.1-1.5,0.2L96,115.9
			c0,0,0,0,0,0c2.2-1.3,3.6-3.7,3.6-6.4c0-4.1-3.3-7.4-7.4-7.4c-4.1,0-7.4,3.3-7.4,7.4c0,4.1,3.3,7.4,7.4,7.4c0.7,0,1.4-0.1,2.1-0.3
			l0,0l4.7,10.4c-1,0.7-1.8,1.8-2.1,3.1l0,0l-12.1-0.9c-0.2-1.7-1.7-3.1-3.5-3.1c-2,0-3.6,1.6-3.6,3.6c0,1.9,1.4,3.4,3.2,3.5
			l0.3,11.9h0c-0.8,0.3-1.4,1.2-1.4,2.1c0,1.3,1,2.3,2.3,2.3C83.4,149.5,84.4,148.5,84.4,147.3z M87.9,144.3c-1.1,0-2.1-0.9-2.1-2.1
			c0-1.1,0.9-2.1,2.1-2.1c1.1,0,2.1,0.9,2.1,2.1C90,143.3,89.1,144.3,87.9,144.3z M118.6,128.8c0-3.2,2.6-5.9,5.9-5.9
			c3.2,0,5.9,2.6,5.9,5.9c0,3.2-2.6,5.9-5.9,5.9C121.3,134.6,118.6,132,118.6,128.8z M112.3,145.3c2.2,0,4,1.8,4,4c0,2.2-1.8,4-4,4
			c-2.2,0-4-1.8-4-4C108.3,147.1,110.1,145.3,112.3,145.3z M92.2,115.4c-3.2,0-5.9-2.6-5.9-5.9c0-3.2,2.6-5.9,5.9-5.9
			s5.9,2.6,5.9,5.9C98,112.7,95.4,115.4,92.2,115.4z M102,127.1c2.3,0,4.2,1.9,4.2,4.2c0,2.3-1.9,4.2-4.2,4.2
			c-2.3,0-4.2-1.9-4.2-4.2C97.9,129,99.7,127.1,102,127.1z M81.2,132.5c-1.6,0-2.8-1.3-2.8-2.8c0-1.6,1.3-2.8,2.8-2.8
			c1.6,0,2.8,1.3,2.8,2.8C84,131.2,82.8,132.5,81.2,132.5z M80.3,147.3c0-1,0.8-1.8,1.8-1.8c1,0,1.8,0.8,1.8,1.8s-0.8,1.8-1.8,1.8
			C81.1,149.1,80.3,148.3,80.3,147.3z"/>
	</g>
</g>
</svg>
