<?xml version="1.0" encoding="utf-8"?>
<!-- Generator: Adobe Illustrator 18.0.0, SVG Export Plug-In . SVG Version: 6.00 Build 0)  -->
<!DOCTYPE svg PUBLIC "-//W3C//DTD SVG 1.1//EN" "http://www.w3.org/Graphics/SVG/1.1/DTD/svg11.dtd">
<svg version="1.1" id="Layer_1" xmlns="http://www.w3.org/2000/svg" xmlns:xlink="http://www.w3.org/1999/xlink" x="0px" y="0px"
	 viewBox="0 0 200 40" enable-background="new 0 0 200 40" xml:space="preserve">
<g>
	<g>
		<path fill="#FFFFFF" d="M49.3,7.1c0-0.7,0.6-1.3,1.3-1.3c0.7,0,1.2,0.6,1.2,1.3c0,0.7-0.6,1.3-1.2,1.3C49.9,8.3,49.3,7.7,49.3,7.1
			z M49.4,27.7V12.3h2.2v15.5H49.4z"/>
		<path fill="#FFFFFF" d="M64.8,27.7V17.4c0-3.9-4.3-3.9-7-2.4v12.8h-2.2V12.3h2.1l0,0.8c1.6-1.2,4.7-1.4,6.6-0.5
			c1.5,0.7,2.6,2.1,2.6,4.5v10.7H64.8z"/>
		<path fill="#FFFFFF" d="M70.8,27.7v-17c0-4.5,3.3-5.3,5.9-4.9l-0.3,2c-1.9-0.3-3.3,0.5-3.3,2.9v1.5h3.3l-0.7,2.1h-2.5v13.4H70.8z"
			/>
		<path fill="#FFFFFF" d="M89.5,22c0,3.2-1.6,6-5.7,6c-4,0-5.8-2.8-5.8-6V18c0-3.9,2.1-6.1,5.8-6.1c3.6,0,5.7,2.3,5.7,6.1V22z
			 M87.3,18c0-3-1.6-3.9-3.5-3.9c-2,0-3.6,1-3.6,3.9v4.4c0,2.3,1.4,3.6,3.6,3.6c2.2,0,3.5-1.4,3.5-3.6V18z"/>
		<path fill="#FFFFFF" d="M94.9,6.1l6.9,19.5l6.9-19.5h1.4v21.6h-1.4V10.2l-6.2,17.6H101l-6.1-17.6v17.6h-1.4V6.1H94.9z"/>
		<path fill="#FFFFFF" d="M119.5,12c6.4,0,6.4,3.6,6.4,6.5v9.2c-4.9,0.5-11.9,1.4-11.9-5.2v-2.6c0-2.2,0.9-3.5,2.2-4.1
			c2.2-1.1,6.1-0.4,8.3,1.2c0-1.9-0.8-4-5.1-3.9L119.5,12z M115.3,22.7c0,4.1,4.2,4.5,9.1,3.8v-8.4c-2.8-1.5-9.1-3.4-9.1,1.9V22.7z"
			/>
		<path fill="#FFFFFF" d="M139.6,12.3h1.4v17.5c0,2.5-1,3.8-3.3,4.5l-0.4-1.1c1.4-0.5,2.3-1.5,2.3-3.5v-4c-1,1.6-2.5,2.4-4.5,2.4
			c-3.6,0-5.7-1.9-5.7-5.8v-4.6c0-3.7,2.4-5.7,5.9-5.7c1.8,0,3.4,0.6,4.4,2.1L139.6,12.3z M130.7,22.6c0,2.7,1.7,4.2,4.4,4.2
			c2.1,0,4.5-1.3,4.5-4.3v-5.7c-0.2-2.6-2.4-3.6-4.4-3.6c-1.9,0-4.4,0.9-4.4,4.6V22.6z"/>
		<path fill="#FFFFFF" d="M146.6,12.3v0.8c2-1.3,5.4-1.4,7.4-0.5c1.5,0.7,2.6,2.1,2.6,4.4v10.7h-1.4V17.1c0-4.8-5.7-4.4-8.7-2.8
			v13.4h-1.4V12.3H146.6z"/>
		<path fill="#FFFFFF" d="M161.9,12.3v10.3c0,2.9,1.6,4.3,4.4,4.3c2.5,0,4.3-1.3,4.3-4.1V12.3h1.4v15.5h-1.4l0.1-1.8
			c-1,1.4-2.7,2.2-4.4,2.2c-3.9,0-5.8-1.9-5.8-5.7V12.3H161.9z"/>
		<path fill="#FFFFFF" d="M177.6,12.3l-0.1,0.9c3.2-1.7,6.6-1.5,8.2,0.4c0.4-0.2,1.4-0.7,1.4-0.7c4.3-2,8.4-0.3,8.4,4.2v10.7h-1.4
			V17.1c0-4.1-3.7-4.6-6.5-3.3l-1.3,0.6c0.3,0.6,0.5,1.7,0.5,2.7v10.6h-1.4V16.8c0-4.5-5.2-4-7.8-2.5v13.4h-1.4V12.3H177.6z"/>
	</g>
	<g>
		<polygon id="bg_2_" fill="#37BAB3" points="4.5,10.6 20.7,1.3 36.9,10.6 36.9,29.4 20.7,38.7 4.5,29.4 		"/>
		<g>
			<defs>
				<polygon id="SVGID_1_" points="4.5,10.6 20.7,1.3 36.9,10.6 36.9,29.4 20.7,38.7 4.5,29.4 				"/>
			</defs>
			<clipPath id="SVGID_2_">
				<use xlink:href="#SVGID_1_"  overflow="visible"/>
			</clipPath>
			<path clip-path="url(#SVGID_2_)" fill="#247B78" d="M44.6,19c0.4,8-3.3,15.6-9.5,20.2c-0.2,0.1-0.4,0.3-0.6,0.4
				c-0.5,0.3-1,0.7-1.5,1c-0.4,0.2-0.8,0.5-1.2,0.7c-7.2-4.2-15.1-8.8-17.8-10.2c-5.4-2.7-8.7-12.8-2.9-19.1
				c8.2-8.6,17.2-2.4,17.2-2.4L44.6,19z"/>
		</g>
		<g id="round_white_1_">
			<path fill="#FFFFFF" d="M27.3,18.4c0.6-1.6,1-3.2,1.3-4.7c-1.4-0.2-3.1-0.3-4.8-0.3c-0.6,0-1.1,0-1.7,0.1
				c0.4,0.4,0.8,0.8,1.1,1.2c0,0,0,0,0,0c0.2-0.1,0.3-0.1,0.5-0.1c0.8,0,1.4,0.6,1.4,1.4c0,0.3-0.1,0.6-0.3,0.8c0,0,0,0,0,0
				c0.7,1,1.3,2,1.9,3.1C26.9,19.5,27.2,19,27.3,18.4z"/>
			<path fill="#FFFFFF" d="M9.6,13.3c-0.9,1.5-1.5,3.2-1.7,5.1c0.8-0.6,1.6-1.2,2.4-1.7C10,15.6,9.8,14.5,9.6,13.3z"/>
			<path fill="#FFFFFF" d="M11.8,15.8C11.8,15.8,11.8,15.8,11.8,15.8c0-0.1,0-0.2,0-0.3c0-0.8,0.6-1.4,1.4-1.4
				c0.4,0,0.8,0.2,1.1,0.5c0,0,0,0,0,0c2-0.8,4.1-1.4,6.2-1.7c-1.8-1.6-3.9-3-6.3-4.1c-1.5,0.9-2.8,2.1-3.9,3.5
				c0.1,1.2,0.4,2.5,0.7,3.9C11.2,16.1,11.5,16,11.8,15.8z"/>
			<path fill="#FFFFFF" d="M29.8,10.7c-0.1,0.7-0.2,1.5-0.3,2.4c0.9,0.2,1.8,0.3,2.5,0.5C31.4,12.6,30.7,11.6,29.8,10.7z"/>
			<path fill="#FFFFFF" d="M23.8,12.7c1.8,0,3.5,0.1,4.9,0.3c0.2-1.1,0.3-2.1,0.3-2.9C26.8,8.2,23.9,7,20.7,7
				c-2.1,0-4.1,0.5-5.8,1.4c2.4,1.2,4.6,2.7,6.4,4.5C22.2,12.8,23,12.7,23.8,12.7z"/>
			<path fill="#FFFFFF" d="M13.1,17c-0.4,0-0.8-0.2-1-0.5c0,0,0,0,0,0c-0.3,0.2-0.6,0.3-0.9,0.5c0.7,2.3,1.7,4.7,3.4,6.9
				c1.5,2,3.4,3.7,5.6,5.1c0,0,0,0,0,0c2.6-2.2,4.6-5,6.1-8.1c-0.6-1.3-1.3-2.4-2-3.5c0,0,0,0,0,0c-0.2,0.1-0.3,0.1-0.5,0.1
				c-0.8,0-1.4-0.6-1.4-1.4c0-0.3,0.1-0.6,0.3-0.8c0,0,0,0,0,0c-0.5-0.6-1-1.1-1.5-1.6c-2.3,0.3-4.5,0.8-6.6,1.7c0,0,0,0,0,0
				c0,0.1,0,0.1,0,0.2C14.5,16.3,13.9,17,13.1,17z"/>
			<path fill="#FFFFFF" d="M32.5,14.6L32.5,14.6c-0.1-0.3-0.3-0.6-0.5-0.9L32.5,14.6C32.5,14.6,32.5,14.6,32.5,14.6
				c-0.9-0.2-1.9-0.5-3.1-0.7c-0.3,1.5-0.7,3.1-1.3,4.8c-0.3,0.8-0.6,1.5-0.9,2.2c0.3,0.7,0.6,1.5,0.9,2.2c0.8,2.3,1.3,4.5,1.5,6.3
				c2.5-2.4,4.1-5.7,4.1-9.4C33.7,18.1,33.3,16.2,32.5,14.6z"/>
			<path fill="#FFFFFF" d="M26.7,21.8c-1.3,2.6-3,4.9-5.1,6.9c-0.3,0.3-0.5,0.5-0.8,0.7c0.2,0.1,0.5,0.2,0.7,0.4
				c0.2-0.4,0.7-0.6,1.1-0.6c0.8,0,1.4,0.6,1.4,1.4c0,0.1,0,0.2,0,0.3c0,0,0,0,0,0c0.8,0.3,1.6,0.5,2.4,0.8c0.9-0.4,1.7-1,2.5-1.6
				c-0.2-1.9-0.7-4.2-1.6-6.7C27.2,22.8,26.9,22.3,26.7,21.8z"/>
			<path fill="#FFFFFF" d="M16.8,32.4L15.9,32C16.2,32.2,16.5,32.3,16.8,32.4z"/>
			<path fill="#FFFFFF" d="M23.6,31.5c-0.2,0.2-0.6,0.4-1,0.4c-0.8,0-1.4-0.6-1.4-1.4c0,0,0,0,0,0c0,0,0,0,0,0
				c-0.4-0.2-0.7-0.4-1.1-0.6c-1.1,0.9-2.2,1.7-3.4,2.4c1.2,0.4,2.5,0.6,3.9,0.6c1.6,0,3.2-0.3,4.6-0.9
				C24.8,31.9,24.2,31.7,23.6,31.5C23.6,31.5,23.6,31.5,23.6,31.5z"/>
			<path fill="#FFFFFF" d="M13.9,24.4c-1.5-2-2.6-4.3-3.4-7c-0.9,0.6-1.8,1.3-2.7,2c0,0.2,0,0.4,0,0.5c0,5.5,3.4,10.1,8.1,12
				c1.3-0.7,2.5-1.6,3.6-2.5C17.3,28.2,15.4,26.5,13.9,24.4z"/>
		</g>
	</g>
</g>
</svg>
